<svg class="injected-svg" id="svg-272c8ab3-789e-4252-9284-ca814094e454" height="100%" width="100%" viewBox="0 0 540 508"
    xmlns="http://www.w3.org/2000/svg">
    <path xmlns="http://www.w3.org/2000/svg" id="SvgjsPath40321253" d="M40.82-15.62L32.17-15.62L30.66-9.49L18.90-9.49L39.82-36.88L39.82-45.11L2.86-45.11L2.94-30.41L11.51-30.41L12.26-35.62L24.02-35.62L2.60-8.23L2.60 0L40.91 0ZM84.17-8.65L73.58-22.76L84.50-37.13L88.62-38.30L88.62-45.53L76.10-44.77L67.20-31.58L63-37.46L66.11-38.30L66.11-45.53L43.85-44.77L43.85-37.55L48.13-36.29L57.96-22.93L47.21-8.23L42.92-7.22L42.92 0L55.44 0L64.51-13.86L68.80-7.90L65.60-7.22L65.60 0L89.54 0L89.54-7.22ZM126-13.36C121.55-10.67 117.60-9.32 114.41-9.32C108.44-9.32 104.75-13.86 104.75-23.02C104.75-31.00 107.27-36.20 113.82-36.20C115.33-36.20 117.01-36.04 118.19-35.70L119.45-29.82L128.44-29.82L128.86-43.01C125.50-44.44 119.36-46.28 113.48-46.28C101.98-46.28 89.88-40.57 89.88-22.26C89.88-7.31 99.04 1.18 111.13 1.18C117.60 1.18 124.24-1.26 130.62-6.22ZM179.42-8.99L179.42-31.75C179.51-41.41 173.54-46.28 166.07-46.28C161.70-46.28 156.66-44.52 152.12-41.08L152.12-65.69L132.72-64.93L132.72-57.71L137.84-55.94L137.84-8.99L132.72-7.22L132.72 0L156.49 0L156.49-7.22L152.12-8.82L152.12-32.26C154.73-34.36 157.42-35.45 159.68-35.45C162.96-35.45 165.23-33.26 165.14-28.64L165.14 0L184.55 0L184.55-7.22ZM218.90-46.28C213.86-46.28 209.50-43.85 204.88-39.48L203.62-45.61L187.32-44.77L187.32-37.63L192.44-35.78L192.44-8.99L187.32-7.22L187.32 0L213.19 0L213.19-7.22L206.72-8.99L206.72-31.58C208.66-33.68 211.34-35.11 213.78-35.11C214.12-35.11 214.45-35.11 214.70-35.03L215.71-28.39L223.94-28.39L224.70-45.44C222.52-46.03 220.67-46.28 218.90-46.28ZM274.51-8.99L274.51-31.58C274.51-41.41 268.63-46.28 261.16-46.28C256.12-46.28 250.40-44.10 245.28-39.56L244.02-45.61L227.72-44.77L227.72-37.63L232.85-35.87L232.85-8.90L227.72-7.22L227.72 0L251.58 0L251.58-7.22L247.13-8.82L247.13-32.26C249.73-34.36 252.42-35.45 254.77-35.45C257.96-35.45 260.23-33.35 260.23-28.64L260.23 0L279.55 0L279.55-7.22ZM325.75-8.65L316.93-25.62L325.00-37.30L329.03-38.30L329.03-45.53L307.61-44.77L307.61-37.55L311.30-36.71L306.26-29.23L300.47-29.23L300.47-65.69L281.06-64.93L281.06-57.71L286.19-56.03L286.19-8.90L281.06-7.22L281.06 0L305.26 0L305.26-7.22L300.47-9.07L300.47-19.82L305.93-19.82L315.34 0L330.54 0L330.54-7.22Z" fill="#343a40" fontsize="84" transform="matrix(1,0,0,1,105.93,285.255)"></path>
</svg>
